<svg viewBox="0 0 50 50" fill="none" xmlns="http://www.w3.org/2000/svg">
<path d="M19.9895 27.824C19.9895 29.734 17.6795 30.691 16.3295 29.34L12.1045 25.115C10.9365 23.947 9.04353 23.947 7.87553 25.115C6.80153 26.189 6.70353 27.899 7.64853 29.089L18.3835 42.607C21.0975 45.321 24.8475 47 28.9905 47C37.2745 47 43.9905 40.284 43.9905 32V16C43.9905 14.343 42.6475 13 40.9905 13C39.3335 13 37.9905 14.343 37.9905 16V25V10C37.9905 8.343 36.6475 7 34.9905 7C33.3335 7 31.9905 8.343 31.9905 10V23V21V6C31.9905 4.343 30.6475 3 28.9905 3C27.3335 3 25.9905 4.343 25.9905 6V21V23V8C25.9905 6.343 24.6475 5 22.9905 5C21.3335 5 19.9905 6.343 19.9905 8V23L19.9895 27.824Z" stroke="#1E1E1E" stroke-width="4" stroke-miterlimit="10" stroke-linecap="round" stroke-linejoin="round"/>
</svg>
