<svg viewBox="0 0 48 48" fill="none" xmlns="http://www.w3.org/2000/svg">
<path d="M34.0001 26L26.0001 44C24.4088 44 22.8826 43.3679 21.7574 42.2426C20.6322 41.1174 20.0001 39.5913 20.0001 38V30H8.68006C8.10025 30.0066 7.52593 29.887 6.99692 29.6496C6.4679 29.4121 5.99683 29.0625 5.61634 28.625C5.23586 28.1874 4.95505 27.6723 4.79338 27.1155C4.63171 26.5586 4.59305 25.9733 4.68006 25.4L7.44006 7.39999C7.58471 6.44618 8.06919 5.57678 8.80425 4.95198C9.53931 4.32718 10.4754 3.98909 11.4401 3.99999H34.0001M34.0001 26V3.99999M34.0001 26H39.3401C40.472 26.02 41.5719 25.6237 42.4309 24.8864C43.2899 24.149 43.8483 23.1219 44.0001 22V7.99999C43.8483 6.87811 43.2899 5.85099 42.4309 5.11363C41.5719 4.37626 40.472 3.97997 39.3401 3.99999H34.0001" stroke="#1E1E1E" stroke-width="4" stroke-linecap="round" stroke-linejoin="round"/>
</svg>
