<svg viewBox="0 0 48 48" fill="none" xmlns="http://www.w3.org/2000/svg">
<path d="M14 22L22 4C23.5913 4 25.1174 4.63214 26.2426 5.75736C27.3679 6.88258 28 8.4087 28 10V18H39.32C39.8998 17.9934 40.4741 18.113 41.0031 18.3504C41.5322 18.5879 42.0032 18.9375 42.3837 19.375C42.7642 19.8126 43.045 20.3276 43.2067 20.8845C43.3683 21.4414 43.407 22.0267 43.32 22.6L40.56 40.6C40.4154 41.5538 39.9309 42.4232 39.1958 43.048C38.4608 43.6728 37.5247 44.0109 36.56 44H14M14 22V44M14 22H8C6.93913 22 5.92172 22.4214 5.17157 23.1716C4.42143 23.9217 4 24.9391 4 26V40C4 41.0609 4.42143 42.0783 5.17157 42.8284C5.92172 43.5786 6.93913 44 8 44H14" stroke="#1E1E1E" stroke-width="4" stroke-linecap="round" stroke-linejoin="round"/>
</svg>
